<svg version="1.1" id="Layer_1" xmlns="http://www.w3.org/2000/svg" xmlns:xlink="http://www.w3.org/1999/xlink" x="0px" y="0px"
	 width="100%" viewBox="0 0 1067 1066" enable-background="new 0 0 1067 1066" xml:space="preserve">
<path fill="#FFFFFF" opacity="1.000000" stroke="none" 
	d="
M1068.000000,402.000000 
	C1068.000000,623.974060 1068.000000,845.448059 1068.000000,1066.961060 
	C712.400940,1066.961060 356.801880,1066.961060 1.101399,1066.961060 
	C1.101399,711.775940 1.101399,356.551788 1.101399,1.163826 
	C356.666595,1.163826 712.333313,1.163826 1068.000000,1.163826 
	C1068.000000,134.531540 1068.000000,268.015778 1068.000000,402.000000 
M926.976685,78.473343 
	C903.100952,65.789589 877.507690,60.936676 850.639343,60.948315 
	C636.662720,61.041008 422.686035,61.002632 208.709396,60.993889 
	C194.890106,60.993324 181.228851,61.970917 167.628860,64.875443 
	C142.028885,70.342789 119.852974,82.222649 100.802307,99.842209 
	C86.159195,113.385323 74.880836,129.468506 66.949203,147.912704 
	C59.387119,165.497528 55.139458,183.880997 55.122814,202.857086 
	C54.930458,422.166321 54.936035,641.475830 55.170849,860.784973 
	C55.183895,872.970276 56.839558,885.315308 59.183064,897.302063 
	C63.625336,920.023682 74.470520,940.019958 89.286797,957.543823 
	C103.623138,974.500061 121.172867,987.636353 141.794495,996.334534 
	C157.630615,1003.014160 174.128311,1007.845459 191.292969,1007.861389 
	C416.101593,1008.069824 640.910461,1008.019958 865.719177,1007.902771 
	C872.377319,1007.899292 879.112244,1006.858765 885.676941,1005.600647 
	C901.500488,1002.568115 916.810608,997.543579 930.306335,988.731934 
	C941.327698,981.535889 952.258728,973.713196 961.550171,964.478394 
	C973.412659,952.688354 982.738159,938.723633 989.539551,923.131409 
	C997.051270,905.910767 1001.846008,888.009094 1001.864014,869.366699 
	C1002.076050,650.557434 1002.048218,431.747894 1001.872192,212.938583 
	C1001.862305,200.672348 1000.825256,188.272476 998.835022,176.170181 
	C994.647766,150.708084 982.653442,128.732254 965.821106,109.455200 
	C954.969360,97.027412 942.141846,86.832298 926.976685,78.473343 
z"/>
<path fill="#004C93" opacity="1.000000" stroke="none" 
	d="
M927.275269,78.706810 
	C942.141846,86.832298 954.969360,97.027412 965.821106,109.455200 
	C982.653442,128.732254 994.647766,150.708084 998.835022,176.170181 
	C1000.825256,188.272476 1001.862305,200.672348 1001.872192,212.938583 
	C1002.048218,431.747894 1002.076050,650.557434 1001.864014,869.366699 
	C1001.846008,888.009094 997.051270,905.910767 989.539551,923.131409 
	C982.738159,938.723633 973.412659,952.688354 961.550171,964.478394 
	C952.258728,973.713196 941.327698,981.535889 930.306335,988.731934 
	C916.810608,997.543579 901.500488,1002.568115 885.676941,1005.600647 
	C879.112244,1006.858765 872.377319,1007.899292 865.719177,1007.902771 
	C640.910461,1008.019958 416.101593,1008.069824 191.292969,1007.861389 
	C174.128311,1007.845459 157.630615,1003.014160 141.794495,996.334534 
	C121.172867,987.636353 103.623138,974.500061 89.286797,957.543823 
	C74.470520,940.019958 63.625336,920.023682 59.183064,897.302063 
	C56.839558,885.315308 55.183895,872.970276 55.170849,860.784973 
	C54.936035,641.475830 54.930458,422.166321 55.122814,202.857086 
	C55.139458,183.880997 59.387119,165.497528 66.949203,147.912704 
	C74.880836,129.468506 86.159195,113.385323 100.802307,99.842209 
	C119.852974,82.222649 142.028885,70.342789 167.628860,64.875443 
	C181.228851,61.970917 194.890106,60.993324 208.709396,60.993889 
	C422.686035,61.002632 636.662720,61.041008 850.639343,60.948315 
	C877.507690,60.936676 903.100952,65.789589 927.275269,78.706810 
M571.078796,726.002502 
	C569.913879,726.884277 568.218262,727.515808 567.666199,728.686523 
	C562.187866,740.303467 556.894653,752.007751 551.557129,763.690979 
	C544.578369,778.966614 537.562012,794.225342 530.645081,809.528992 
	C524.018799,824.189514 517.566467,838.929016 510.874603,853.559143 
	C509.562408,856.427917 510.316986,857.572998 513.014160,858.935364 
	C513.009827,861.100342 512.895935,863.271729 513.020752,865.429199 
	C513.465881,873.123169 517.886597,878.113586 525.713684,879.887024 
	C530.977051,881.079468 537.938843,877.499817 541.000061,871.850403 
	C544.553711,865.292297 547.830688,858.581604 551.476318,852.076477 
	C567.708862,823.110901 583.978760,794.165955 600.362854,765.285950 
	C603.635620,759.517151 607.230042,753.890442 611.164612,748.558594 
	C612.612244,746.596863 615.471497,745.676819 617.686890,744.281616 
	C619.124512,747.143311 620.625610,749.976074 621.953247,752.887939 
	C622.267761,753.577820 622.061829,754.538513 621.990295,755.365540 
	C621.340210,762.882874 620.678467,770.399231 619.996643,777.913757 
	C619.329834,785.262756 618.747375,792.621704 617.927307,799.953857 
	C616.711060,810.827820 615.266602,821.676147 614.018616,832.546753 
	C613.233826,839.382812 612.632446,846.239868 611.945557,853.087158 
	C610.965149,862.860535 609.954163,872.630859 609.012207,882.407898 
	C608.567017,887.029358 611.479980,889.958191 614.946472,891.875366 
	C619.106323,894.176025 623.895874,895.531433 628.434692,892.947266 
	C635.413757,888.973877 636.564026,881.450073 637.856018,874.641907 
	C640.977356,858.193787 643.231873,841.583496 646.076111,825.079956 
	C649.246887,806.681396 652.341492,788.257202 656.156433,769.987732 
	C657.917603,761.553467 661.152344,753.403809 664.041443,745.239258 
	C665.251099,741.820740 668.887817,741.290588 671.095154,743.199219 
	C674.242554,745.920959 677.375549,749.441284 678.732178,753.254700 
	C680.438477,758.050964 680.395203,763.481323 681.019043,768.648743 
	C682.703674,782.600586 684.436890,796.547668 685.967468,810.516724 
	C687.127563,821.104675 687.916321,831.733154 689.058594,842.323242 
	C689.456543,846.013062 690.095276,849.742920 691.198486,853.275146 
	C692.821472,858.471436 698.437378,861.623291 704.022278,860.997131 
	C708.961182,860.443420 713.349304,856.530823 713.932678,851.641907 
	C714.786804,844.482727 715.634583,837.298828 715.933044,830.102539 
	C716.496399,816.520630 716.760559,802.923584 716.940918,789.330139 
	C716.992920,785.409302 716.008728,781.474976 716.056641,777.553650 
	C716.255066,761.294800 716.035095,744.991760 717.236328,728.798950 
	C717.959595,719.049866 719.634277,708.909424 723.298584,699.931396 
	C732.451599,677.505127 742.804688,655.579102 749.422974,632.170288 
	C753.388916,618.142700 757.844849,604.137390 755.874695,589.332947 
	C754.901611,582.020935 753.297241,574.620728 750.665222,567.764648 
	C749.029541,563.503723 745.705627,558.580872 741.815308,556.713074 
	C720.240967,546.354980 701.695984,532.178589 685.327515,514.903198 
	C683.550964,513.028198 681.492676,511.070404 679.168762,510.120239 
	C663.491211,503.710052 647.271057,504.209076 631.575256,509.018311 
	C603.360718,517.663269 576.578552,529.967651 550.702087,544.105713 
	C529.944275,555.447144 507.532532,562.288086 485.047241,568.854309 
	C477.798157,570.971191 469.966003,571.303711 462.357422,571.915833 
	C455.040283,572.504578 449.976654,575.886414 451.204926,580.908447 
	C451.913239,583.804504 454.137115,586.884155 456.561371,588.708435 
	C466.057281,595.854431 476.979248,599.305359 488.879547,598.957092 
	C505.901459,598.458923 522.918945,597.063477 539.930542,597.180115 
	C555.080261,597.283936 560.708313,605.859558 558.640442,617.862732 
	C557.023193,627.250305 553.025391,636.355225 549.221375,645.214783 
	C537.889771,671.606018 519.681152,693.656921 502.825256,716.463318 
	C484.234406,741.617188 464.746704,766.108582 445.625671,790.870056 
	C440.546387,797.447571 441.080719,803.069641 444.019928,808.083435 
	C448.025635,814.916443 456.001953,818.827148 461.084747,815.788269 
	C464.460266,813.770081 467.062012,810.421082 469.915955,807.573425 
	C485.959198,791.565308 502.037415,775.591370 517.978088,759.481445 
	C530.479736,746.847046 542.798218,734.031372 555.201782,721.299866 
	C556.014771,720.465393 556.731812,719.433228 557.712646,718.885193 
	C561.275452,716.894592 564.884460,713.810608 569.192688,716.171936 
	C573.078369,718.301880 571.998535,722.423645 571.078796,726.002502 
M312.499390,475.999146 
	C306.757202,469.258636 301.227844,462.320251 295.203766,455.841827 
	C290.587982,450.877899 284.033325,450.716644 278.834473,454.678894 
	C274.372803,458.079376 273.047729,463.948059 276.156830,469.368347 
	C283.329620,481.873169 290.410980,494.456879 298.212891,506.568268 
	C310.065643,524.968018 322.492920,542.997803 334.685669,561.178345 
	C344.746979,576.180725 351.616058,592.468262 353.941589,610.449585 
	C356.819702,632.703613 362.179657,654.360291 369.022461,675.681396 
	C374.591278,693.032959 381.652405,709.479736 396.628143,721.155212 
	C404.865295,727.577148 413.354645,731.177124 424.414215,728.597534 
	C431.551270,726.932922 439.345428,728.218384 446.830750,727.871582 
	C452.751678,727.597290 458.609955,729.830505 463.507294,722.572632 
	C474.873199,705.728149 487.865265,689.990906 499.847382,673.549255 
	C510.832764,658.475281 521.195068,642.973145 527.795166,624.630188 
	C523.547424,625.114319 519.668274,625.877258 515.778015,625.938782 
	C504.763306,626.113037 493.736450,626.262146 482.728241,625.942810 
	C462.969940,625.369690 445.736023,618.569702 432.294678,603.709961 
	C423.294861,593.760437 420.450928,581.794495 424.556488,569.138489 
	C429.848816,552.824158 442.364319,546.721863 456.863892,545.037537 
	C462.414917,544.392578 468.311066,545.155884 473.539246,543.581421 
	C490.655853,538.426880 507.537689,532.492554 523.619507,527.153687 
	C524.117493,518.138611 524.620789,510.154663 524.983521,502.164307 
	C525.388489,493.242188 525.552979,484.308319 526.022583,475.390106 
	C526.941284,457.942200 528.010742,440.502228 528.995605,423.057739 
	C529.683411,410.874695 530.316406,398.688538 531.010620,386.505890 
	C531.301025,381.410889 531.086487,376.192413 532.146667,371.254486 
	C534.867249,358.583435 522.869324,350.782928 512.300171,353.313629 
	C505.108185,355.035614 504.214203,361.435883 503.022369,367.318787 
	C499.706818,383.684937 496.483765,400.069855 493.240509,416.450592 
	C490.814880,428.701691 488.348694,440.945312 486.020844,453.215088 
	C483.540344,466.289307 481.293976,479.408447 478.746826,492.469269 
	C477.931976,496.647766 475.274780,500.451752 471.061859,500.668579 
	C467.030731,500.876038 464.108978,497.655151 462.872040,493.474274 
	C462.419281,491.943817 461.327881,490.556030 461.088440,489.015991 
	C458.987213,475.501129 457.034271,461.963348 454.994598,448.438782 
	C453.004089,435.240051 451.065643,422.032227 448.918060,408.858765 
	C446.382172,393.303497 443.752777,377.761566 440.948364,362.252838 
	C439.716003,355.437927 438.941956,348.498199 433.041992,343.342346 
	C428.150024,339.067352 423.202728,337.901703 417.309998,340.270905 
	C412.133331,342.352234 407.901886,348.546661 408.045105,354.085205 
	C408.103668,356.349976 408.777618,358.591766 408.975677,360.861115 
	C410.345886,376.558777 411.719635,392.256500 412.982635,407.963043 
	C414.063171,421.400024 415.206787,434.837280 415.942963,448.295166 
	C416.836731,464.633575 417.457214,480.990814 417.850403,497.348175 
	C417.902771,499.527008 415.871307,503.627808 414.903381,503.598358 
	C412.295471,503.519073 408.870697,502.368835 407.341553,500.414307 
	C403.881287,495.991364 401.116394,490.958771 398.510071,485.944672 
	C386.385254,462.618774 374.462097,439.188141 362.358734,415.851013 
	C357.058380,405.631134 351.449066,395.571899 346.082092,385.385956 
	C343.762756,380.984100 339.757812,378.479980 335.404236,379.514496 
	C329.738617,380.860840 323.194824,382.784332 322.218109,389.997955 
	C321.763336,393.356537 322.667480,397.217468 323.970703,400.440216 
	C329.418640,413.912231 335.174835,427.261871 340.960632,440.594482 
	C350.678497,462.987854 360.738953,485.236420 370.143188,507.759705 
	C372.969147,514.527893 374.439209,521.938721 375.854187,529.187195 
	C376.559448,532.800049 373.629242,535.788940 370.202240,534.783142 
	C365.078705,533.279358 359.026581,531.518250 355.735107,527.782349 
	C341.034485,511.097015 327.173462,493.671906 312.499390,475.999146 
M239.733459,162.055038 
	C225.582870,166.773697 211.745651,172.196091 198.949036,180.000900 
	C183.650238,189.331818 169.609055,200.045944 158.726471,214.581421 
	C150.413223,225.685135 144.087692,237.388306 142.517517,251.530853 
	C142.101700,255.276306 142.786743,257.796417 145.299484,259.563232 
	C146.913498,260.698120 150.365189,261.440460 151.523178,260.516449 
	C153.599426,258.859741 155.739349,255.838135 155.789185,253.345703 
	C155.970444,244.281586 159.527725,236.580093 164.249573,229.312531 
	C180.014893,205.047623 203.068573,190.121674 229.232849,179.389450 
	C245.274887,172.809235 262.135345,168.671051 279.353363,168.222549 
	C309.832031,167.428650 340.346466,167.963135 370.845306,168.088242 
	C372.748871,168.096039 374.957794,168.960800 376.501160,170.122391 
	C397.447968,185.887558 418.271912,201.815842 439.187592,217.622604 
	C460.611694,233.813614 482.095123,249.926178 503.571655,266.047668 
	C508.124847,269.465546 512.760498,272.773560 517.358093,276.132233 
	C517.706848,275.769684 518.055542,275.407166 518.404297,275.044617 
	C516.492493,272.750061 514.577209,270.458405 512.669434,268.160431 
	C501.273285,254.433182 489.905762,240.682022 478.475891,226.982880 
	C468.086731,214.531067 457.666962,202.104355 447.195068,189.722076 
	C432.159821,171.943863 417.074738,154.207764 401.989075,136.472260 
	C397.989166,131.769775 394.119385,131.557236 389.681122,135.871979 
	C384.544189,140.866013 379.385986,145.850876 374.503754,151.088348 
	C372.368744,153.378693 370.149475,154.018631 367.129608,154.068619 
	C334.777222,154.604294 302.341736,152.138229 270.092957,156.119492 
	C260.158142,157.346008 250.399338,159.998352 239.733459,162.055038 
M604.950928,196.359177 
	C582.980774,222.333572 561.010620,248.307953 539.040466,274.282349 
	C539.328674,274.598328 539.616882,274.914337 539.905029,275.230347 
	C541.219849,274.693939 542.710632,274.396790 543.819824,273.580933 
	C549.457886,269.434143 555.010803,265.170898 560.568298,260.915527 
	C576.607239,248.634521 592.571899,236.255463 608.681213,224.067642 
	C629.693237,208.170532 651.012207,192.671509 671.786987,176.472565 
	C679.227173,170.671127 686.446228,167.364090 696.260742,167.761368 
	C716.054260,168.562531 735.906860,167.762909 755.727539,168.086121 
	C768.243347,168.290237 780.793701,168.855743 793.241577,170.117462 
	C808.816406,171.696121 823.585388,176.762497 837.669495,183.390472 
	C856.904663,192.442551 874.294922,204.266159 887.562866,221.192123 
	C894.266724,229.744247 900.136108,238.898926 901.078979,250.298294 
	C901.312378,253.120224 901.747986,256.426178 903.386536,258.471680 
	C904.683105,260.090393 908.435974,261.322235 910.264343,260.603851 
	C914.017273,259.129272 915.881592,255.350922 914.918701,251.229370 
	C913.416931,244.801270 912.126465,238.170059 909.462952,232.197311 
	C902.741028,217.124176 891.886536,205.225311 879.291443,194.661346 
	C865.963562,183.482727 851.138855,174.799789 835.237183,168.204163 
	C810.554626,157.966446 784.589722,153.773758 757.869324,153.968338 
	C736.378479,154.124832 714.881775,153.776749 693.396179,154.147064 
	C687.565125,154.247574 683.403625,152.689240 679.658203,148.304703 
	C675.774963,143.759003 671.335327,139.674789 667.003845,135.530014 
	C663.160889,131.852676 659.425659,131.834518 655.924988,135.634491 
	C651.365479,140.583939 647.002869,145.719620 642.663025,150.865891 
	C630.096130,165.768143 617.583008,180.715775 604.950928,196.359177 
M774.263306,630.995789 
	C775.842590,629.136475 778.205994,627.521912 778.875183,625.378479 
	C783.592468,610.268127 784.525635,594.701111 781.751648,579.231262 
	C780.319275,571.243469 776.886475,563.561340 773.863708,555.936890 
	C772.599426,552.747803 769.615295,550.302734 765.948914,552.724426 
	C762.893372,554.742676 764.315125,557.280823 765.495422,560.399719 
	C768.562134,568.503235 771.963562,576.890320 772.677551,585.379089 
	C773.785950,598.556335 773.953552,611.984680 769.177124,624.876648 
	C768.073120,627.856445 769.174988,630.950745 774.263306,630.995789 
M334.451111,725.955811 
	C332.965576,721.529358 331.828094,716.937622 329.839539,712.750061 
	C328.921722,710.817444 326.298462,708.410156 324.523743,708.469421 
	C321.851257,708.558899 319.612793,710.824341 320.983643,714.349121 
	C324.365692,723.045227 327.062347,732.088135 331.265686,740.366577 
	C338.339874,754.299194 348.741241,765.433594 362.527893,773.226685 
	C365.728241,775.035645 368.169891,775.535339 370.029877,771.768921 
	C371.830353,768.122803 369.171326,766.672852 366.775452,764.941895 
	C362.295319,761.705139 357.598694,758.668640 353.570251,754.926453 
	C345.083923,747.043213 339.578308,737.055237 334.451111,725.955811 
M386.452148,758.066833 
	C387.753632,758.733887 389.088684,759.343445 390.349792,760.079712 
	C393.203796,761.745972 396.075317,761.669861 397.564423,758.676575 
	C399.126099,755.537354 397.573181,753.216919 394.304016,751.655090 
	C373.074066,741.513184 360.295258,723.981995 352.076599,702.632141 
	C350.977234,699.776367 349.339386,698.590881 346.541199,699.047974 
	C343.443787,699.554016 342.700806,701.831787 343.025757,704.592651 
	C343.136597,705.534302 343.451874,706.474487 343.808075,707.361389 
	C352.373779,728.690063 365.530121,746.224854 386.452148,758.066833 
M805.002808,624.426819 
	C810.567871,605.297913 810.988647,586.021912 805.711853,566.846313 
	C804.776123,563.445618 803.454102,558.022400 795.959717,559.449585 
	C797.332092,567.848389 799.273376,575.958679 799.866699,584.166382 
	C801.009521,599.976685 798.980225,615.452881 793.092529,630.345093 
	C792.495178,631.855835 793.203796,635.118469 794.335754,635.764404 
	C795.749878,636.571472 799.223145,636.241760 800.057129,635.111389 
	C802.202576,632.203613 803.382385,628.583496 805.002808,624.426819 
z"/>
<path fill="#FFFFFF" opacity="1.000000" stroke="none" 
	d="
M571.833374,725.999573 
	C571.998535,722.423645 573.078369,718.301880 569.192688,716.171936 
	C564.884460,713.810608 561.275452,716.894592 557.712646,718.885193 
	C556.731812,719.433228 556.014771,720.465393 555.201782,721.299866 
	C542.798218,734.031372 530.479736,746.847046 517.978088,759.481445 
	C502.037415,775.591370 485.959198,791.565308 469.915955,807.573425 
	C467.062012,810.421082 464.460266,813.770081 461.084747,815.788269 
	C456.001953,818.827148 448.025635,814.916443 444.019928,808.083435 
	C441.080719,803.069641 440.546387,797.447571 445.625671,790.870056 
	C464.746704,766.108582 484.234406,741.617188 502.825256,716.463318 
	C519.681152,693.656921 537.889771,671.606018 549.221375,645.214783 
	C553.025391,636.355225 557.023193,627.250305 558.640442,617.862732 
	C560.708313,605.859558 555.080261,597.283936 539.930542,597.180115 
	C522.918945,597.063477 505.901459,598.458923 488.879547,598.957092 
	C476.979248,599.305359 466.057281,595.854431 456.561371,588.708435 
	C454.137115,586.884155 451.913239,583.804504 451.204926,580.908447 
	C449.976654,575.886414 455.040283,572.504578 462.357422,571.915833 
	C469.966003,571.303711 477.798157,570.971191 485.047241,568.854309 
	C507.532532,562.288086 529.944275,555.447144 550.702087,544.105713 
	C576.578552,529.967651 603.360718,517.663269 631.575256,509.018311 
	C647.271057,504.209076 663.491211,503.710052 679.168762,510.120239 
	C681.492676,511.070404 683.550964,513.028198 685.327515,514.903198 
	C701.695984,532.178589 720.240967,546.354980 741.815308,556.713074 
	C745.705627,558.580872 749.029541,563.503723 750.665222,567.764648 
	C753.297241,574.620728 754.901611,582.020935 755.874695,589.332947 
	C757.844849,604.137390 753.388916,618.142700 749.422974,632.170288 
	C742.804688,655.579102 732.451599,677.505127 723.298584,699.931396 
	C719.634277,708.909424 717.959595,719.049866 717.236328,728.798950 
	C716.035095,744.991760 716.255066,761.294800 716.056641,777.553650 
	C716.008728,781.474976 716.992920,785.409302 716.940918,789.330139 
	C716.760559,802.923584 716.496399,816.520630 715.933044,830.102539 
	C715.634583,837.298828 714.786804,844.482727 713.932678,851.641907 
	C713.349304,856.530823 708.961182,860.443420 704.022278,860.997131 
	C698.437378,861.623291 692.821472,858.471436 691.198486,853.275146 
	C690.095276,849.742920 689.456543,846.013062 689.058594,842.323242 
	C687.916321,831.733154 687.127563,821.104675 685.967468,810.516724 
	C684.436890,796.547668 682.703674,782.600586 681.019043,768.648743 
	C680.395203,763.481323 680.438477,758.050964 678.732178,753.254700 
	C677.375549,749.441284 674.242554,745.920959 671.095154,743.199219 
	C668.887817,741.290588 665.251099,741.820740 664.041443,745.239258 
	C661.152344,753.403809 657.917603,761.553467 656.156433,769.987732 
	C652.341492,788.257202 649.246887,806.681396 646.076111,825.079956 
	C643.231873,841.583496 640.977356,858.193787 637.856018,874.641907 
	C636.564026,881.450073 635.413757,888.973877 628.434692,892.947266 
	C623.895874,895.531433 619.106323,894.176025 614.946472,891.875366 
	C611.479980,889.958191 608.567017,887.029358 609.012207,882.407898 
	C609.954163,872.630859 610.965149,862.860535 611.945557,853.087158 
	C612.632446,846.239868 613.233826,839.382812 614.018616,832.546753 
	C615.266602,821.676147 616.711060,810.827820 617.927307,799.953857 
	C618.747375,792.621704 619.329834,785.262756 619.996643,777.913757 
	C620.678467,770.399231 621.340210,762.882874 621.990295,755.365540 
	C622.061829,754.538513 622.267761,753.577820 621.953247,752.887939 
	C620.625610,749.976074 619.124512,747.143311 617.686890,744.281616 
	C615.471497,745.676819 612.612244,746.596863 611.164612,748.558594 
	C607.230042,753.890442 603.635620,759.517151 600.362854,765.285950 
	C583.978760,794.165955 567.708862,823.110901 551.476318,852.076477 
	C547.830688,858.581604 544.553711,865.292297 541.000061,871.850403 
	C537.938843,877.499817 530.977051,881.079468 525.713684,879.887024 
	C517.886597,878.113586 513.465881,873.123169 513.020752,865.429199 
	C512.895935,863.271729 513.009827,861.100342 513.391968,858.319031 
	C522.567200,837.635620 531.205383,817.496765 540.208252,797.522278 
	C548.695618,778.691284 557.653137,760.072571 566.211304,741.272827 
	C568.452759,736.348999 569.978821,731.099548 571.833374,725.999573 
z"/>
<path fill="#FFFFFF" opacity="1.000000" stroke="none" 
	d="
M312.754272,476.256592 
	C327.173462,493.671906 341.034485,511.097015 355.735107,527.782349 
	C359.026581,531.518250 365.078705,533.279358 370.202240,534.783142 
	C373.629242,535.788940 376.559448,532.800049 375.854187,529.187195 
	C374.439209,521.938721 372.969147,514.527893 370.143188,507.759705 
	C360.738953,485.236420 350.678497,462.987854 340.960632,440.594482 
	C335.174835,427.261871 329.418640,413.912231 323.970703,400.440216 
	C322.667480,397.217468 321.763336,393.356537 322.218109,389.997955 
	C323.194824,382.784332 329.738617,380.860840 335.404236,379.514496 
	C339.757812,378.479980 343.762756,380.984100 346.082092,385.385956 
	C351.449066,395.571899 357.058380,405.631134 362.358734,415.851013 
	C374.462097,439.188141 386.385254,462.618774 398.510071,485.944672 
	C401.116394,490.958771 403.881287,495.991364 407.341553,500.414307 
	C408.870697,502.368835 412.295471,503.519073 414.903381,503.598358 
	C415.871307,503.627808 417.902771,499.527008 417.850403,497.348175 
	C417.457214,480.990814 416.836731,464.633575 415.942963,448.295166 
	C415.206787,434.837280 414.063171,421.400024 412.982635,407.963043 
	C411.719635,392.256500 410.345886,376.558777 408.975677,360.861115 
	C408.777618,358.591766 408.103668,356.349976 408.045105,354.085205 
	C407.901886,348.546661 412.133331,342.352234 417.309998,340.270905 
	C423.202728,337.901703 428.150024,339.067352 433.041992,343.342346 
	C438.941956,348.498199 439.716003,355.437927 440.948364,362.252838 
	C443.752777,377.761566 446.382172,393.303497 448.918060,408.858765 
	C451.065643,422.032227 453.004089,435.240051 454.994598,448.438782 
	C457.034271,461.963348 458.987213,475.501129 461.088440,489.015991 
	C461.327881,490.556030 462.419281,491.943817 462.872040,493.474274 
	C464.108978,497.655151 467.030731,500.876038 471.061859,500.668579 
	C475.274780,500.451752 477.931976,496.647766 478.746826,492.469269 
	C481.293976,479.408447 483.540344,466.289307 486.020844,453.215088 
	C488.348694,440.945312 490.814880,428.701691 493.240509,416.450592 
	C496.483765,400.069855 499.706818,383.684937 503.022369,367.318787 
	C504.214203,361.435883 505.108185,355.035614 512.300171,353.313629 
	C522.869324,350.782928 534.867249,358.583435 532.146667,371.254486 
	C531.086487,376.192413 531.301025,381.410889 531.010620,386.505890 
	C530.316406,398.688538 529.683411,410.874695 528.995605,423.057739 
	C528.010742,440.502228 526.941284,457.942200 526.022583,475.390106 
	C525.552979,484.308319 525.388489,493.242188 524.983521,502.164307 
	C524.620789,510.154663 524.117493,518.138611 523.619507,527.153687 
	C507.537689,532.492554 490.655853,538.426880 473.539246,543.581421 
	C468.311066,545.155884 462.414917,544.392578 456.863892,545.037537 
	C442.364319,546.721863 429.848816,552.824158 424.556488,569.138489 
	C420.450928,581.794495 423.294861,593.760437 432.294678,603.709961 
	C445.736023,618.569702 462.969940,625.369690 482.728241,625.942810 
	C493.736450,626.262146 504.763306,626.113037 515.778015,625.938782 
	C519.668274,625.877258 523.547424,625.114319 527.795166,624.630188 
	C521.195068,642.973145 510.832764,658.475281 499.847382,673.549255 
	C487.865265,689.990906 474.873199,705.728149 463.507294,722.572632 
	C458.609955,729.830505 452.751678,727.597290 446.830750,727.871582 
	C439.345428,728.218384 431.551270,726.932922 424.414215,728.597534 
	C413.354645,731.177124 404.865295,727.577148 396.628143,721.155212 
	C381.652405,709.479736 374.591278,693.032959 369.022461,675.681396 
	C362.179657,654.360291 356.819702,632.703613 353.941589,610.449585 
	C351.616058,592.468262 344.746979,576.180725 334.685669,561.178345 
	C322.492920,542.997803 310.065643,524.968018 298.212891,506.568268 
	C290.410980,494.456879 283.329620,481.873169 276.156830,469.368347 
	C273.047729,463.948059 274.372803,458.079376 278.834473,454.678894 
	C284.033325,450.716644 290.587982,450.877899 295.203766,455.841827 
	C301.227844,462.320251 306.757202,469.258636 312.754272,476.256592 
z"/>
<path fill="#FFFFFF" opacity="1.000000" stroke="none" 
	d="
M240.146698,162.026428 
	C250.399338,159.998352 260.158142,157.346008 270.092957,156.119492 
	C302.341736,152.138229 334.777222,154.604294 367.129608,154.068619 
	C370.149475,154.018631 372.368744,153.378693 374.503754,151.088348 
	C379.385986,145.850876 384.544189,140.866013 389.681122,135.871979 
	C394.119385,131.557236 397.989166,131.769775 401.989075,136.472260 
	C417.074738,154.207764 432.159821,171.943863 447.195068,189.722076 
	C457.666962,202.104355 468.086731,214.531067 478.475891,226.982880 
	C489.905762,240.682022 501.273285,254.433182 512.669434,268.160431 
	C514.577209,270.458405 516.492493,272.750061 518.404297,275.044617 
	C518.055542,275.407166 517.706848,275.769684 517.358093,276.132233 
	C512.760498,272.773560 508.124847,269.465546 503.571655,266.047668 
	C482.095123,249.926178 460.611694,233.813614 439.187592,217.622604 
	C418.271912,201.815842 397.447968,185.887558 376.501160,170.122391 
	C374.957794,168.960800 372.748871,168.096039 370.845306,168.088242 
	C340.346466,167.963135 309.832031,167.428650 279.353363,168.222549 
	C262.135345,168.671051 245.274887,172.809235 229.232849,179.389450 
	C203.068573,190.121674 180.014893,205.047623 164.249573,229.312531 
	C159.527725,236.580093 155.970444,244.281586 155.789185,253.345703 
	C155.739349,255.838135 153.599426,258.859741 151.523178,260.516449 
	C150.365189,261.440460 146.913498,260.698120 145.299484,259.563232 
	C142.786743,257.796417 142.101700,255.276306 142.517517,251.530853 
	C144.087692,237.388306 150.413223,225.685135 158.726471,214.581421 
	C169.609055,200.045944 183.650238,189.331818 198.949036,180.000900 
	C211.745651,172.196091 225.582870,166.773697 240.146698,162.026428 
z"/>
<path fill="#FFFFFF" opacity="1.000000" stroke="none" 
	d="
M604.999878,196.002380 
	C617.583008,180.715775 630.096130,165.768143 642.663025,150.865891 
	C647.002869,145.719620 651.365479,140.583939 655.924988,135.634491 
	C659.425659,131.834518 663.160889,131.852676 667.003845,135.530014 
	C671.335327,139.674789 675.774963,143.759003 679.658203,148.304703 
	C683.403625,152.689240 687.565125,154.247574 693.396179,154.147064 
	C714.881775,153.776749 736.378479,154.124832 757.869324,153.968338 
	C784.589722,153.773758 810.554626,157.966446 835.237183,168.204163 
	C851.138855,174.799789 865.963562,183.482727 879.291443,194.661346 
	C891.886536,205.225311 902.741028,217.124176 909.462952,232.197311 
	C912.126465,238.170059 913.416931,244.801270 914.918701,251.229370 
	C915.881592,255.350922 914.017273,259.129272 910.264343,260.603851 
	C908.435974,261.322235 904.683105,260.090393 903.386536,258.471680 
	C901.747986,256.426178 901.312378,253.120224 901.078979,250.298294 
	C900.136108,238.898926 894.266724,229.744247 887.562866,221.192123 
	C874.294922,204.266159 856.904663,192.442551 837.669495,183.390472 
	C823.585388,176.762497 808.816406,171.696121 793.241577,170.117462 
	C780.793701,168.855743 768.243347,168.290237 755.727539,168.086121 
	C735.906860,167.762909 716.054260,168.562531 696.260742,167.761368 
	C686.446228,167.364090 679.227173,170.671127 671.786987,176.472565 
	C651.012207,192.671509 629.693237,208.170532 608.681213,224.067642 
	C592.571899,236.255463 576.607239,248.634521 560.568298,260.915527 
	C555.010803,265.170898 549.457886,269.434143 543.819824,273.580933 
	C542.710632,274.396790 541.219849,274.693939 539.905029,275.230347 
	C539.616882,274.914337 539.328674,274.598328 539.040466,274.282349 
	C561.010620,248.307953 582.980774,222.333572 604.999878,196.002380 
z"/>
<path fill="#FFFFFF" opacity="1.000000" stroke="none" 
	d="
M773.859497,630.997375 
	C769.174988,630.950745 768.073120,627.856445 769.177124,624.876648 
	C773.953552,611.984680 773.785950,598.556335 772.677551,585.379089 
	C771.963562,576.890320 768.562134,568.503235 765.495422,560.399719 
	C764.315125,557.280823 762.893372,554.742676 765.948914,552.724426 
	C769.615295,550.302734 772.599426,552.747803 773.863708,555.936890 
	C776.886475,563.561340 780.319275,571.243469 781.751648,579.231262 
	C784.525635,594.701111 783.592468,610.268127 778.875183,625.378479 
	C778.205994,627.521912 775.842590,629.136475 773.859497,630.997375 
z"/>
<path fill="#FFFFFF" opacity="1.000000" stroke="none" 
	d="
M334.693604,726.262024 
	C339.578308,737.055237 345.083923,747.043213 353.570251,754.926453 
	C357.598694,758.668640 362.295319,761.705139 366.775452,764.941895 
	C369.171326,766.672852 371.830353,768.122803 370.029877,771.768921 
	C368.169891,775.535339 365.728241,775.035645 362.527893,773.226685 
	C348.741241,765.433594 338.339874,754.299194 331.265686,740.366577 
	C327.062347,732.088135 324.365692,723.045227 320.983643,714.349121 
	C319.612793,710.824341 321.851257,708.558899 324.523743,708.469421 
	C326.298462,708.410156 328.921722,710.817444 329.839539,712.750061 
	C331.828094,716.937622 332.965576,721.529358 334.693604,726.262024 
z"/>
<path fill="#FFFFFF" opacity="1.000000" stroke="none" 
	d="
M386.072113,758.011719 
	C365.530121,746.224854 352.373779,728.690063 343.808075,707.361389 
	C343.451874,706.474487 343.136597,705.534302 343.025757,704.592651 
	C342.700806,701.831787 343.443787,699.554016 346.541199,699.047974 
	C349.339386,698.590881 350.977234,699.776367 352.076599,702.632141 
	C360.295258,723.981995 373.074066,741.513184 394.304016,751.655090 
	C397.573181,753.216919 399.126099,755.537354 397.564423,758.676575 
	C396.075317,761.669861 393.203796,761.745972 390.349792,760.079712 
	C389.088684,759.343445 387.753632,758.733887 386.072113,758.011719 
z"/>
<path fill="#FFFFFF" opacity="1.000000" stroke="none" 
	d="
M804.975464,624.837402 
	C803.382385,628.583496 802.202576,632.203613 800.057129,635.111389 
	C799.223145,636.241760 795.749878,636.571472 794.335754,635.764404 
	C793.203796,635.118469 792.495178,631.855835 793.092529,630.345093 
	C798.980225,615.452881 801.009521,599.976685 799.866699,584.166382 
	C799.273376,575.958679 797.332092,567.848389 795.959717,559.449585 
	C803.454102,558.022400 804.776123,563.445618 805.711853,566.846313 
	C810.988647,586.021912 810.567871,605.297913 804.975464,624.837402 
z"/>
<path fill="#004C93" opacity="1.000000" stroke="none" 
	d="
M571.456116,726.001038 
	C569.978821,731.099548 568.452759,736.348999 566.211304,741.272827 
	C557.653137,760.072571 548.695618,778.691284 540.208252,797.522278 
	C531.205383,817.496765 522.567200,837.635620 513.445312,857.869751 
	C510.316986,857.572998 509.562408,856.427917 510.874603,853.559143 
	C517.566467,838.929016 524.018799,824.189514 530.645081,809.528992 
	C537.562012,794.225342 544.578369,778.966614 551.557129,763.690979 
	C556.894653,752.007751 562.187866,740.303467 567.666199,728.686523 
	C568.218262,727.515808 569.913879,726.884277 571.456116,726.001038 
z"/>
</svg>