<svg version="1.1" id="Layer_1" xmlns="http://www.w3.org/2000/svg" xmlns:xlink="http://www.w3.org/1999/xlink" x="0px" y="0px"
	 width="100%" viewBox="0 0 768 512" enable-background="new 0 0 768 512" xml:space="preserve">
<path fill="#000000" opacity="1.000000" stroke="none" 
	d="
M769.000000,56.531342 
	C762.054382,56.219231 760.652527,63.024788 756.498779,66.723885 
	C753.937073,63.184734 754.122498,59.491890 754.062988,56.015388 
	C753.877441,45.186474 753.938477,34.353256 753.914551,23.521683 
	C753.898193,16.132130 753.906189,16.106762 746.436829,16.107975 
	C628.787109,16.127098 511.137360,16.164928 393.487640,16.174536 
	C270.338684,16.184593 147.189758,16.169548 24.040806,16.163662 
	C16.133308,16.163282 16.122450,16.156017 16.122337,24.284948 
	C16.120173,179.929199 16.120304,335.573425 16.122284,491.217682 
	C16.122368,497.885590 16.132786,497.892609 23.797947,497.892883 
	C261.930328,497.901215 500.062744,497.903198 738.195129,497.950226 
	C742.954651,497.951172 747.819458,497.276642 752.918091,499.076965 
	C750.940979,503.469025 753.333191,507.196838 754.260986,511.414856 
	C755.889832,511.808807 757.632751,512.230347 759.687866,512.825928 
	C507.052826,513.000000 254.105682,513.000000 1.079260,513.000000 
	C1.079260,342.421844 1.079260,171.843658 1.079260,1.132727 
	C256.999939,1.132727 512.999939,1.132727 769.000000,1.132727 
	C769.000000,19.403587 769.000000,37.733135 769.000000,56.531342 
z"/>
<path fill="#000000" opacity="1.000000" stroke="none" 
	d="
M506.562744,424.333679 
	C499.572876,438.330780 486.632324,444.612427 472.566925,441.107697 
	C460.591980,438.123810 450.539093,424.724487 450.791443,411.937988 
	C450.906219,406.121216 453.018250,400.860626 456.124847,396.067474 
	C457.832275,393.433075 457.671753,391.419495 455.991791,388.816925 
	C437.837921,360.693573 420.031097,332.342896 401.602295,304.402039 
	C394.548218,293.706940 387.489929,283.017548 380.591309,272.221252 
	C379.986755,271.275116 379.532990,270.102234 377.704742,269.670990 
	C372.723206,275.813660 369.107208,283.118195 364.596130,289.810638 
	C343.005280,321.841705 323.329651,355.096222 302.225616,387.436615 
	C299.835480,391.099335 300.143677,393.682465 302.355255,397.259674 
	C308.491119,407.184418 308.257904,417.377716 302.364532,427.452728 
	C296.857178,436.867767 288.463013,442.044617 277.774078,442.015198 
	C265.121460,441.980377 255.902206,435.407806 250.903214,423.822266 
	C246.226944,412.984650 247.981033,402.579681 255.295746,393.387756 
	C262.487885,384.349945 272.166809,381.271851 283.371429,383.241974 
	C286.246185,383.747406 287.580078,382.868561 288.999023,380.608368 
	C305.199158,354.803955 321.209015,328.873230 337.860718,303.362030 
	C346.050781,290.814484 354.037903,278.138275 362.215302,265.584229 
	C363.172852,264.114166 364.622803,262.819092 364.625977,260.766541 
	C354.687714,259.594482 344.803101,258.632782 334.982208,257.226135 
	C317.032440,254.655121 299.485748,250.358810 282.143280,245.004105 
	C259.829193,238.114365 238.327301,229.285568 217.284943,219.259445 
	C215.179901,218.256439 213.606339,218.664902 211.705139,219.679062 
	C190.944611,230.753311 168.624405,214.703690 169.006439,192.485855 
	C169.206848,180.829788 175.428574,171.837601 185.946045,166.690155 
	C196.042999,161.748520 206.209579,162.697601 215.113205,169.667923 
	C224.597961,177.093185 229.353958,187.037186 226.367538,199.106171 
	C224.963058,204.782074 226.493546,206.879974 231.489761,209.099487 
	C248.230270,216.536301 265.105347,223.624237 282.580627,229.090668 
	C304.611267,235.982071 326.980225,241.416809 350.055389,243.723816 
	C375.920807,246.309753 401.645050,245.243713 427.096252,240.457764 
	C463.723755,233.570129 498.604797,221.123123 532.402893,205.537827 
	C534.924438,204.375076 535.612854,203.070221 535.096924,200.136749 
	C532.085510,183.015656 540.336609,168.437820 555.599915,164.569092 
	C566.975769,161.685715 577.089233,164.605606 584.898926,173.738205 
	C592.487671,182.612473 594.252136,196.343552 589.117004,206.085495 
	C583.432434,216.869598 574.731201,222.843750 562.218628,222.588150 
	C557.102295,222.483658 552.301697,221.350906 548.124573,218.302246 
	C545.945801,216.712051 544.038574,216.929489 541.682800,218.069275 
	C523.235107,226.994659 504.293854,234.750534 484.826080,241.147903 
	C459.508331,249.467682 433.838531,256.284119 407.143890,258.541779 
	C402.058380,258.971863 397.017487,259.930023 390.953156,260.786133 
	C394.803619,266.858704 398.216156,272.454437 401.835236,277.913239 
	C424.185730,311.625275 446.135193,345.596283 467.693909,379.819275 
	C469.469330,382.637604 471.200439,383.621613 474.914673,383.099121 
	C498.563141,379.772736 515.553833,401.800476 506.562744,424.333679 
M188.101013,183.616013 
	C187.493515,184.403091 186.807571,185.142105 186.291214,185.985031 
	C182.893097,191.532211 183.448975,197.737289 187.776871,203.049576 
	C191.256149,207.320190 196.898453,208.711807 202.703278,206.731018 
	C208.392151,204.789810 211.859833,199.678299 211.911453,193.328506 
	C211.960358,187.313629 208.868713,183.315384 203.795898,180.665665 
	C198.186874,177.735809 193.204865,179.287064 188.101013,183.616013 
M577.163879,190.346054 
	C576.265198,188.570099 575.516968,186.696457 574.439331,185.036636 
	C571.279480,180.169220 565.675415,178.078079 559.579773,179.322067 
	C554.860779,180.285126 549.953918,185.795349 549.196533,190.981918 
	C548.395447,196.467896 551.140259,202.455093 555.680115,205.124298 
	C565.882996,211.122986 577.176941,203.808777 577.163879,190.346054 
M478.133698,426.119812 
	C487.483887,426.599304 493.897339,420.913727 493.838501,412.197388 
	C493.782471,403.897247 487.278656,397.727356 479.035156,398.154144 
	C472.849152,398.474365 466.951050,403.990387 466.227386,410.132141 
	C465.297882,418.021027 469.073120,423.368866 478.133698,426.119812 
M265.240021,418.901947 
	C269.893646,425.703827 276.596985,427.966339 283.211975,424.967804 
	C288.969727,422.357849 292.865784,414.936523 291.394592,409.381409 
	C289.466583,402.101471 283.131592,397.585266 275.761932,398.236938 
	C266.592194,399.047729 261.985077,407.501923 265.240021,418.901947 
z"/>
<path fill="#000000" opacity="1.000000" stroke="none" 
	d="
M397.576660,61.553230 
	C365.852631,58.754265 336.040863,63.972416 307.125366,76.418114 
	C269.913757,92.434593 243.005432,119.225311 222.988495,153.689102 
	C220.862885,157.348831 219.043808,158.637161 214.753189,156.626389 
	C206.179794,152.608475 206.114700,152.916321 210.853958,144.611084 
	C225.786667,118.442551 245.136322,95.966438 270.266418,79.471283 
	C294.581818,63.510906 321.038483,51.979279 350.321106,47.624458 
	C373.490784,44.178738 396.400665,44.544556 419.240662,49.353916 
	C441.765869,54.097000 462.429047,63.299461 482.240997,75.019196 
	C512.408081,92.864487 534.159851,118.303749 551.353821,148.239853 
	C553.512451,151.998184 553.881104,154.145325 548.862305,155.909180 
	C540.273071,158.927902 540.505493,159.218155 535.803955,151.114594 
	C518.776184,121.765656 495.807709,98.077644 465.785492,82.296410 
	C444.711029,71.218552 422.111145,63.575256 397.576660,61.553230 
z"/>
<path fill="#000000" opacity="1.000000" stroke="none" 
	d="
M326.569641,135.694733 
	C335.040253,110.666229 357.903870,94.671120 383.479614,96.993019 
	C407.357513,99.160774 426.383728,116.329430 432.308014,139.398911 
	C436.109467,154.202118 435.140472,168.891159 427.524902,181.991013 
	C408.502716,214.711929 368.671844,220.921326 341.473633,196.389694 
	C322.900452,179.637451 320.233887,153.060669 326.569641,135.694733 
M404.748505,121.731003 
	C398.479675,116.834351 391.594025,113.194023 383.587616,112.368378 
	C364.349823,110.384514 346.614258,122.141144 340.282135,140.538528 
	C333.855011,159.211975 342.576752,181.514664 357.654877,190.186783 
	C378.917053,202.415558 406.690796,192.778381 415.745361,172.440308 
	C423.352783,155.352692 419.718750,136.636246 404.748505,121.731003 
z"/>
<path fill="#000000" opacity="1.000000" stroke="none" 
	d="
M507.986511,383.000916 
	C512.277100,377.362274 516.604004,372.117279 520.859314,366.814758 
	C535.842102,348.144806 546.362793,327.180054 553.686279,304.419922 
	C560.401306,283.550995 562.529907,262.211243 561.992004,240.454193 
	C561.937073,238.232330 560.810730,235.087921 563.275696,234.013153 
	C566.706848,232.517105 570.616577,231.813599 574.440186,232.204285 
	C576.258118,232.390030 576.110229,234.381271 576.267090,235.875259 
	C577.842896,250.883331 576.680786,265.820496 574.391235,280.621216 
	C569.689758,311.014587 558.230774,338.853546 541.315369,364.463684 
	C534.784180,374.351959 527.153442,383.388184 519.097412,392.070984 
	C517.457581,393.838379 515.863464,394.623047 514.197388,392.361481 
	C512.037964,389.430206 510.051117,386.371826 507.986511,383.000916 
z"/>
<path fill="#000000" opacity="1.000000" stroke="none" 
	d="
M250.118286,383.897949 
	C249.306702,384.780090 248.696823,385.355743 248.190018,386.011108 
	C242.412704,393.482025 242.330048,393.562592 236.171753,386.646698 
	C215.969696,363.959625 201.599945,338.047058 192.456116,309.040619 
	C185.844131,288.065857 183.110458,266.654755 182.868256,244.801910 
	C182.857193,243.803391 182.852386,242.802383 182.906845,241.805923 
	C183.524780,230.494949 183.494492,230.640533 194.319489,233.137527 
	C197.815338,233.943909 198.359360,235.869400 198.239563,238.860031 
	C197.752930,251.008438 197.829544,263.210175 199.608337,275.203003 
	C201.802048,289.993408 205.802109,304.412842 211.323273,318.377930 
	C220.108673,340.599457 232.602341,360.469391 248.706787,378.095978 
	C250.133530,379.657562 252.130875,381.090363 250.118286,383.897949 
z"/>
<path fill="#000000" opacity="1.000000" stroke="none" 
	d="
M425.522949,429.500793 
	C430.198792,428.038483 434.527130,426.821228 438.754364,425.319336 
	C441.717896,424.266449 443.577271,425.139740 444.778809,427.881165 
	C445.045959,428.490692 445.245300,429.130402 445.521179,429.735535 
	C449.417694,438.280823 449.413483,438.260803 440.074493,441.257263 
	C419.181854,447.960876 397.802643,451.840820 375.831177,451.054352 
	C354.466614,450.289581 333.582214,446.653381 313.544464,438.767395 
	C309.575226,437.205292 309.309113,435.404938 311.167877,432.030670 
	C315.952942,423.344238 315.797577,423.542023 325.103088,426.548584 
	C347.442169,433.766052 370.199707,437.212921 393.818604,434.991272 
	C404.457306,433.990540 414.760162,431.784851 425.522949,429.500793 
z"/>
<path fill="#000000" opacity="1.000000" stroke="none" 
	d="
M754.019226,472.993408 
	C754.406494,455.027954 752.847595,437.476746 755.600891,419.188446 
	C766.015747,433.643494 766.073303,482.269043 755.668945,491.793091 
	C753.224121,485.578491 754.379517,479.434387 754.019226,472.993408 
z"/>
</svg>